#!OML:ASF F:\VICON\USERDATA\INSTALL\rory3\rory3.ASF
:FULLY-SPECIFIED
:DEGREES
181
root 1.07066 17.1115 -16.5328 17.1775 -1.6018 -1.61546
lowerback 18.3324 0.31626 0.422514
upperback 1.87386 0.803977 3.4444
thorax -8.30706 0.43224 3.28681
lowerneck -18.8385 -4.28234 -9.06138
upperneck 21.451 -4.6759 5.71291
head 10.3342 -2.21744 2.86236
rclavicle 1.43125e-014 1.74931e-014
rhumerus -31.8068 -3.09084 -82.5929
rradius 62.4188
rwrist -4.0101
rhand -20.4699 21.0941
rfingers 7.12502
rthumb 5.88615 -8.80417
lclavicle 1.43125e-014 1.74931e-014
lhumerus -31.5805 2.47775 86.7358
lradius 60.7927
lwrist 7.64158
lhand -16.0025 20.1333
lfingers 7.12502
lthumb 10.1978 49.8662
rfemur -39.2427 1.83792 23.6655
rtibia 43.5121
rfoot -15.7194 -9.37361
rtoes 3.82235
lfemur -41.702 -1.8815 -19.3435
ltibia 44.9939
lfoot -17.3414 4.31996
ltoes 1.36471
182
root 1.07063 17.0629 -16.5593 17.6463 -1.65501 -1.65342
lowerback 18.7641 0.388974 0.445275
upperback 1.91712 0.911939 3.43611
thorax -8.50262 0.483647 3.24063
lowerneck -18.8283 -4.26269 -9.12623
upperneck 21.1549 -4.61977 5.72075
head 10.2228 -2.19381 2.88068
rclavicle -1.98785e-015 1.66979e-014
rhumerus -32.1708 -2.90376 -82.5824
rradius 63.9757
rwrist -3.96825
rhand -21.5811 22.2976
rfingers 7.12502
rthumb 4.81326 -7.6277
lclavicle -1.98785e-015 1.66979e-014
lhumerus -31.6758 2.24817 86.7031
lradius 62.0056
lwrist 8.35147
lhand -17.112 17.2448
lfingers 7.12502
lthumb 9.12731 47.0273
rfemur -40.3937 1.84444 23.7303
rtibia 44.3925
rfoot -15.928 -9.38723
rtoes 3.68528
lfemur -42.8158 -1.6682 -19.3318
ltibia 45.9175
lfoot -17.6287 4.2183
ltoes 1.33502
183
root 1.06974 17.0143 -16.5893 18.1664 -1.71468 -1.77808
lowerback 19.1687 0.51157 0.587016
upperback 2.04821 1.10204 3.38418
thorax -8.58761 0.567419 3.0543
lowerneck -19.056 -4.41934 -9.11211
upperneck 20.7742 -4.8324 5.82822
head 10.1487 -2.27086 2.87823
rclavicle -2.38542e-015 -3.18055e-015
rhumerus -32.63 -2.82056 -82.6004
rradius 66.2249
rwrist -4.29777
rhand -22.3526 22.268
rfingers 7.12502
rthumb 4.06827 -7.67289
lclavicle -2.38542e-015 -3.18055e-015
lhumerus -31.3379 1.87504 86.5845
lradius 62.9475
lwrist 8.4958
lhand -18.0985 10.6403
lfingers 7.12502
lthumb 8.17528 40.4622
rfemur -41.5899 1.96088 23.8659
rtibia 45.3024
rfoot -16.2339 -9.36962
rtoes 4.30723
lfemur -44.0468 -1.33616 -19.266
ltibia 46.8915
lfoot -17.8983 4.03191
ltoes 1.57411
184
root 1.06656 16.9724 -16.6141 18.7022 -1.75926 -1.95681
lowerback 19.4612 0.585583 0.725665
upperback 2.19608 1.22603 3.34583
thorax -8.58792 0.61938 2.89982
lowerneck -19.3418 -4.43454 -9.16969
upperneck 20.5191 -4.86255 6.0861
head 10.1209 -2.2528 2.96998
rclavicle -2.78299e-015 -1.03368e-014
rhumerus -32.7914 -2.67251 -82.7436
rradius 68.1314
rwrist -4.73371
rhand -23.0768 22.2905
rfingers 7.12502
rthumb 3.36892 -7.66265
lclavicle -2.78299e-015 -1.03368e-014
lhumerus -31.2192 1.72032 86.3618
lradius 64.1349
lwrist 8.60135
lhand -17.5278 17.3685
lfingers 7.12502
lthumb 8.72601 47.1682
rfemur -42.7556 2.09474 24.0649
rtibia 46.2206
rfoot -16.5304 -9.42
rtoes 5.00908
lfemur -45.3283 -0.958881 -19.1803
ltibia 47.8865
lfoot -18.1665 3.9524
ltoes 1.48004
185
root 1.06272 16.9226 -16.6384 19.2287 -1.76667 -2.00137
lowerback 19.7475 0.633595 0.781644
upperback 2.33396 1.29682 3.28327
thorax -8.59324 0.648628 2.77986
lowerneck -19.6602 -4.361 -9.1584
upperneck 20.3104 -4.75032 6.19056
head 10.0973 -2.18153 3.01706
rclavicle 7.95139e-016 -2.54444e-014
rhumerus -32.8248 -2.60415 -82.8881
rradius 69.7822
rwrist -5.05903
rhand -23.9919 22.86
rfingers 7.12502
rthumb 2.4852 -7.10528
lclavicle 7.95139e-016 -2.54444e-014
lhumerus -31.2736 1.62248 86.1392
lradius 65.5518
lwrist 8.6415
lhand -17.3545 20.893
lfingers 7.12502
lthumb 8.89329 50.6856
rfemur -43.9452 2.22477 24.1197
rtibia 47.1537
rfoot -16.6913 -9.59859
rtoes 4.71038
lfemur -46.6095 -0.703687 -19.202
ltibia 48.8629
lfoot -18.3845 3.88528
ltoes 1.25747
186
root 1.06232 16.8656 -16.6617 19.8116 -1.84581 -1.99569
lowerback 20.0392 0.696571 0.799909
upperback 2.36433 1.38175 3.20464
thorax -8.72001 0.686621 2.66063
lowerneck -19.6994 -4.35475 -9.11447
upperneck 19.908 -4.73328 6.18551
head 9.95798 -2.16771 3.00497
rclavicle -7.95139e-015 1.90833e-014
rhumerus -33.0061 -2.55919 -82.9827
rradius 71.408
rwrist -5.38406
rhand -24.5527 23.5455
rfingers 7.12502
rthumb 1.94361 -6.42541
lclavicle -7.95139e-015 1.90833e-014
lhumerus -31.2988 1.51869 85.9684
lradius 66.6832
lwrist 8.59779
lhand -16.8364 23.6468
lfingers 7.12502
lthumb 9.39321 53.4175
rfemur -45.2533 2.37871 24.0859
rtibia 48.102
rfoot -16.8771 -9.74158
rtoes 4.11055
lfemur -47.9032 -0.493736 -19.2636
ltibia 49.8055
lfoot -18.5988 3.78071
ltoes 1.24022
187
root 1.06175 16.8141 -16.6792 20.4528 -1.89492 -2.00332
lowerback 20.2738 0.751971 0.770634
upperback 2.3721 1.45106 3.1826
thorax -8.84225 0.72003 2.63436
lowerneck -19.7614 -4.42195 -9.22543
upperneck 19.5582 -4.80235 6.31079
head 9.85733 -2.19044 3.0527
rclavicle 5.96354e-015 1.98785e-014
rhumerus -32.9169 -2.45956 -83.0414
rradius 72.6342
rwrist -5.83594
rhand -24.6287 24.1651
rfingers 7.12502
rthumb 1.87015 -5.80645
lclavicle 5.96354e-015 1.98785e-014
lhumerus -31.2279 1.59153 85.8459
lradius 68.033
lwrist 8.90842
lhand -16.7686 24.3395
lfingers 7.12502
lthumb 9.45866 54.1073
rfemur -46.5899 2.42441 24.1025
rtibia 49.0829
rfoot -17.1506 -9.83741
rtoes 3.46187
lfemur -49.2163 -0.335007 -19.3057
ltibia 50.7309
lfoot -18.8499 3.73659
ltoes 0.908784
188
root 1.0632 16.7636 -16.6912 21.1043 -1.84733 -2.03092
lowerback 20.465 0.770144 0.840436
upperback 2.41308 1.491 3.1594
thorax -8.90038 0.735544 2.55752
lowerneck -20.0612 -4.4963 -9.27576
upperneck 19.3795 -4.88057 6.42228
head 9.85978 -2.21119 3.08419
rclavicle -4.37326e-015 2.22639e-014
rhumerus -32.6632 -2.28528 -83.1107
rradius 73.7599
rwrist -6.51179
rhand -24.8951 24.5482
rfingers 7.12502
rthumb 1.61292 -5.42546
lclavicle -4.37326e-015 2.22639e-014
lhumerus -31.1525 1.65799 85.7046
lradius 69.7965
lwrist 10.019
lhand -17.2883 22.643
lfingers 7.12502
lthumb 8.95711 52.4329
rfemur -47.8911 2.37031 24.1624
rtibia 50.0875
rfoot -17.4698 -9.86618
rtoes 3.05331
lfemur -50.5024 -0.258907 -19.298
ltibia 51.6564
lfoot -19.1603 3.6376
ltoes 0.72784
189
root 1.06186 16.705 -16.7054 21.6584 -1.91988 -2.06168
lowerback 20.7217 0.824057 0.779628
upperback 2.45888 1.55161 3.1529
thorax -8.99319 0.765743 2.56775
lowerneck -20.2151 -4.51551 -9.309
upperneck 19.167 -4.87286 6.42223
head 9.81265 -2.20621 3.08675
rclavicle -4.77083e-015 -8.74653e-015
rhumerus -32.5993 -1.98536 -83.2233
rradius 75.1385
rwrist -7.14698
rhand -25.4185 24.7965
rfingers 7.12502
rthumb 1.10734 -5.18041
lclavicle -4.77083e-015 -8.74653e-015
lhumerus -31.176 1.74937 85.5902
lradius 71.1098
lwrist 10.8641
lhand -17.5119 21.5953
lfingers 7.12502
lthumb 8.74141 51.3943
rfemur -49.1236 2.48178 24.1778
rtibia 51.1041
rfoot -17.7853 -9.92374
rtoes 3.11689
lfemur -51.6917 -0.0568118 -19.3288
ltibia 52.6008
lfoot -19.4271 3.45114
ltoes 0.999829
190
root 1.05782 16.6481 -16.7185 22.1587 -2.07486 -2.06607
lowerback 21.0655 0.936237 0.686896
upperback 2.47038 1.67792 3.08774
thorax -9.17287 0.827199 2.51269
lowerneck -20.1492 -4.55253 -9.32595
upperneck 18.782 -4.91778 6.4608
head 9.67017 -2.22288 3.09237
rclavicle 9.54166e-015 1.98785e-014
rhumerus -32.5484 -1.99334 -83.3476
rradius 76.2613
rwrist -7.2738
rhand -25.7309 25.9557
rfingers 7.12502
rthumb 0.805683 -4.02256
lclavicle 9.54166e-015 1.98785e-014
lhumerus -31.2068 1.71525 85.4665
lradius 72.1424
lwrist 11.1802
lhand -17.4374 20.9457
lfingers 7.12502
lthumb 8.81331 50.7417
rfemur -50.3146 2.74872 24.0723
rtibia 52.1067
rfoot -18.1406 -9.89422
rtoes 4.47426
lfemur -52.813 0.192475 -19.4097
ltibia 53.5672
lfoot -19.7384 3.34899
ltoes 1.10017
191
root 1.05461 16.5919 -16.7373 22.6954 -2.03916 -2.23188
lowerback 21.3675 1.00864 0.795098
upperback 2.55542 1.80477 3.1297
thorax -9.24587 0.882851 2.45876
lowerneck -20.0942 -4.5752 -9.30801
upperneck 18.2167 -4.93079 6.43921
head 9.46179 -2.22815 3.07374
rclavicle -1.11319e-014 -6.36111e-015
rhumerus -32.131 -1.99758 -83.3508
rradius 77.0384
rwrist -7.43462
rhand -25.8003 26.9287
rfingers 7.12502
rthumb 0.738667 -3.04974
lclavicle -1.11319e-014 -6.36111e-015
lhumerus -31.0314 1.6819 85.4205
lradius 73.2709
lwrist 11.4734
lhand -17.2118 20.5618
lfingers 7.12502
lthumb 9.03099 50.3485
rfemur -51.5076 2.92694 24.2063
rtibia 53.0319
rfoot -18.4105 -9.8514
rtoes 6.10457
lfemur -54.0465 0.348084 -19.253
ltibia 54.5062
lfoot -20.0035 3.31778
ltoes 0.494016
192
root 1.04907 16.5279 -16.761 23.2754 -1.97233 -2.46368
lowerback 21.5434 1.04715 0.832349
upperback 2.74746 1.87496 3.28098
thorax -9.13542 0.915761 2.58193
lowerneck -20.1955 -4.53725 -9.29436
upperneck 17.619 -4.81468 6.2909
head 9.25699 -2.18497 3.02886
rclavicle 2.50469e-014 3.02153e-014
rhumerus -31.4237 -1.67402 -83.2928
rradius 77.8183
rwrist -7.5577
rhand -26.2008 27.2378
rfingers 7.12502
rthumb 0.351782 -2.74164
lclavicle 2.50469e-014 3.02153e-014
lhumerus -30.6637 1.93541 85.4326
lradius 74.2594
lwrist 11.5932
lhand -17.073 22.0345
lfingers 7.12502
lthumb 9.16491 51.8154
rfemur -52.7016 3.03471 24.537
rtibia 53.8769
rfoot -18.4593 -10.1229
rtoes 5.27764
lfemur -55.3887 0.540171 -19.0304
ltibia 55.3908
lfoot -20.1316 3.23579
ltoes 0.31352
193
root 1.05007 16.4842 -16.764 23.7725 -1.98208 -2.49618
lowerback 21.6694 1.03111 0.798728
upperback 2.89595 1.84664 3.31737
thorax -9.03988 0.90269 2.6482
lowerneck -20.4318 -4.51213 -9.39747
upperneck 17.3285 -4.71881 6.30997
head 9.19289 -2.13968 3.06122
rclavicle -1.59028e-015 -4.6118e-014
rhumerus -31.0948 -1.20532 -83.3229
rradius 78.7696
rwrist -7.43359
rhand -27.0085 27.4457
rfingers 7.12502
rthumb -0.42827 -2.53359
lclavicle -1.59028e-015 -4.6118e-014
lhumerus -30.3311 2.29623 85.3651
lradius 74.9767
lwrist 11.7037
lhand -17.1812 24.9008
lfingers 7.12502
lthumb 9.0605 54.6862
rfemur -53.6571 2.97219 24.6429
rtibia 54.64
rfoot -18.6306 -10.2942
rtoes 4.33827
lfemur -56.385 0.623291 -19.066
ltibia 56.117
lfoot -20.3301 3.2543
ltoes 0.522765
194
root 1.05612 16.4527 -16.7496 24.2594 -1.91202 -2.29193
lowerback 21.5689 0.976782 0.749215
upperback 3.01689 1.75049 3.24996
thorax -8.84672 0.856617 2.62981
lowerneck -20.4936 -4.56905 -9.5734
upperneck 17.0477 -4.76641 6.491
head 9.12004 -2.15109 3.14303
rclavicle 2.78299e-015 5.56597e-015
rhumerus -31.0224 -0.837287 -83.401
rradius 79.8931
rwrist -7.49362
rhand -27.5322 26.6256
rfingers 7.12502
rthumb -0.934108 -3.35208
lclavicle 2.78299e-015 5.56597e-015
lhumerus -30.1253 2.50531 85.2993
lradius 75.6844
lwrist 11.8451
lhand -17.5869 26.1478
lfingers 7.12502
lthumb 8.669 55.9498
rfemur -54.533 2.65073 24.5135
rtibia 55.3787
rfoot -18.9746 -10.2713
rtoes 4.10032
lfemur -57.1713 0.490584 -19.3209
ltibia 56.7343
lfoot -20.6462 3.29869
ltoes 0.354055
195
root 1.05949 16.4219 -16.734 24.7707 -1.83007 -2.03028
lowerback 21.4978 0.919767 0.687255
upperback 3.09703 1.64719 3.14427
thorax -8.71355 0.807216 2.57845
lowerneck -20.4533 -4.62642 -9.58534
upperneck 16.629 -4.84299 6.55614
head 8.97714 -2.17888 3.15269
rclavicle 7.15625e-015 1.23246e-014
rhumerus -30.8153 -0.616895 -83.452
rradius 80.768
rwrist -7.72454
rhand -27.1121 26.1093
rfingers 7.12502
rthumb -0.528357 -3.86977
lclavicle 7.15625e-015 1.23246e-014
lhumerus -30.1265 2.58183 85.1937
lradius 76.4086
lwrist 11.9628
lhand -17.7987 25.7996
lfingers 7.12502
lthumb 8.46458 55.6099
rfemur -55.4548 2.38125 24.2705
rtibia 56.1583
rfoot -19.4622 -10.1228
rtoes 5.33945
lfemur -57.9759 0.338517 -19.6301
ltibia 57.3372
lfoot -20.9707 3.32569
ltoes 0.0945695
